<?xml version="1.0" encoding="UTF-8" standalone="no"?>
<svg width="16px" height="16px" viewBox="0 0 16 16" version="1.1" xmlns="http://www.w3.org/2000/svg" xmlns:xlink="http://www.w3.org/1999/xlink" xmlns:sketch="http://www.bohemiancoding.com/sketch/ns">
    <!-- Generator: Sketch 3.3.3 (12081) - http://www.bohemiancoding.com/sketch -->
    <title>duplicate-normal</title>
    <desc>Created with Sketch.</desc>
    <defs></defs>
    <g id="Page-1" stroke="none" stroke-width="1" fill="none" fill-rule="evenodd" sketch:type="MSPage">
        <g id="duplicate-normal" sketch:type="MSArtboardGroup" fill="#6AB2E6">
            <g id="Group" sketch:type="MSLayerGroup" transform="translate(0.500000, 0.000000)">
                <path d="M14.8471004,3.56956353 L12.1843221,0.557315987 C11.9375423,0.278148254 11.4759515,0.36227329 11.3477224,0.709786472 L10.2362319,3.72203401 C10.1197233,4.03778361 10.3580127,4.37124911 10.7001512,4.37124911 L14.4744201,4.37124911 C14.897366,4.37124911 15.1242817,3.88312277 14.8471004,3.56956353 Z M14.1017398,4.20434037 L14.4744201,3.40265479 L10.7001512,3.40265479 L11.1640706,4.05186989 L12.2755611,1.03962235 L11.4389615,1.19209284 L14.1017398,4.20434037 Z" id="Shape" sketch:type="MSShapeGroup"></path>
                <path d="M3.34170006,1.62700223 C3.34166888,1.81651444 3.3416377,2.00602665 3.34160652,2.19553886 C3.34157534,2.38505107 3.34151298,2.76407549 3.34151298,2.76407549 C3.34151298,2.76407549 8.73558437,3.13506228 9.92700609,4.6444109 C11.4943568,6.63000387 11.2682539,13.2489003 11.2682539,13.2489003 C11.2682539,13.2489003 11.6691245,13.2489005 11.6795026,13.2489005 C12.6497361,13.2489042 14.4744182,13.248911 14.4744182,13.248911 L14.9678288,13.2489129 L14.9678288,12.7646139 L14.9678288,3.53031714 L14.9678288,3.34231127 L14.83859,3.20354987 L12.0069236,0.163239906 L11.8602043,0.00571001241 L11.6427537,0.00571001241 L6.44862849,0.00571001241 L3.8352958,0.00571001241 L3.34196681,0.00571001241 L3.34188714,0.489928967 C3.34188714,0.489928967 3.34176242,1.24797781 3.34170006,1.62700223 Z M3.8352958,0.974304338 L6.44862849,0.974304338 L11.6427537,0.974304338 L11.2785838,0.816774444 L14.1102502,3.85708441 L13.9810114,3.53031714 L13.9810114,12.7646139 L14.474422,12.2803167 L11.6327674,12.280306 C11.6327674,12.280306 11.3604058,6.19844381 10.0918291,4.55122374 C8.92559173,3.03688924 4.32832513,2.7956423 4.32832513,2.7956423 L4.32870445,0.490085384 L3.8352958,0.974304338 Z M0.00297888007,3.21645571 L0.00095938517,15.4910223 L0.000879692757,15.9753958 L0.494366147,15.9753977 L11.1355099,15.9754378 L11.6289205,15.9754396 L11.6289205,15.4911406 L11.6289205,6.25684389 L11.6289205,6.06883801 L11.4996817,5.93007662 L8.66801529,2.88976665 L8.52129601,2.73223676 L8.30384542,2.73223676 L3.10972023,2.73223676 L0.496387537,2.73223676 L0.00305854706,2.73223676 L0.00297888007,3.21645571 L0.00297888007,3.21645571 Z M0.989796193,3.21661213 L0.496387537,3.70083108 L3.10972023,3.70083108 L8.30384542,3.70083108 L7.93967555,3.54330119 L10.771342,6.58361116 L10.6421032,6.25684389 L10.6421032,15.4911406 L11.1355137,15.0068435 L0.494369936,15.0068033 L0.987776698,15.4911787 L0.989796193,3.21661213 L0.989796193,3.21661213 Z" id="Shape" sketch:type="MSShapeGroup"></path>
                <path d="M11.5081921,5.91139304 L8.8454138,2.8991455 C8.59863402,2.61997776 8.13704321,2.7041028 8.00881417,3.05161598 L6.89732364,6.06386352 C6.78081506,6.37961313 7.01910448,6.71307862 7.36124299,6.71307862 L11.1355118,6.71307862 C11.5584577,6.71307862 11.7853734,6.22495228 11.5081921,5.91139304 Z M10.7628315,6.54616988 L11.1355118,5.7444843 L7.36124299,5.7444843 L7.82516233,6.3936994 L8.93665286,3.38145186 L8.10005323,3.53392235 L10.7628315,6.54616988 Z" id="Shape" sketch:type="MSShapeGroup"></path>
            </g>
        </g>
    </g>
</svg>