<?xml version="1.0" encoding="UTF-8" standalone="no"?>
<svg width="16px" height="16px" viewBox="0 0 16 16" version="1.1" xmlns="http://www.w3.org/2000/svg" xmlns:xlink="http://www.w3.org/1999/xlink" xmlns:sketch="http://www.bohemiancoding.com/sketch/ns">
    <!-- Generator: Sketch 3.3.3 (12081) - http://www.bohemiancoding.com/sketch -->
    <title>Artboard 1 Copy</title>
    <desc>Created with Sketch.</desc>
    <defs></defs>
    <g id="Page-1" stroke="none" stroke-width="1" fill="none" fill-rule="evenodd" sketch:type="MSPage">
        <g id="Artboard-1-Copy" sketch:type="MSArtboardGroup" fill="#0F77C2">
            <g id="Line-+-Rectangle-2009-+-Rectangle-2008-Copy-3" sketch:type="MSLayerGroup" transform="translate(1.000000, 0.000000)">
                <path d="M0.4996337,3.4349537 L13.512426,3.4349537 L13.9930121,3.4349537 L13.9930121,2.45902778 L13.512426,2.45902778 L0.4996337,2.45902778 L0.019047619,2.45902778 L0.019047619,3.4349537 L0.4996337,3.4349537 L0.4996337,3.4349537 Z" id="Shape" sketch:type="MSShapeGroup"></path>
                <path d="M5.12065371,13.1191417 L5.12065371,2.9090763 C5.12065371,1.85307141 5.96640552,0.995138889 7.00602987,0.995138889 C8.0473404,0.995138889 8.89140603,1.85200628 8.89140603,2.9090763 L8.89140603,13.1191417 C8.89140603,13.3886362 9.10657175,13.6071047 9.37199211,13.6071047 C9.63741247,13.6071047 9.85257819,13.3886362 9.85257819,13.1191417 L9.85257819,2.9090763 C9.85257819,1.31297789 8.57814235,0.019212963 7.00602987,0.019212963 C5.43576558,0.019212963 4.15948154,1.31387832 4.15948154,2.9090763 L4.15948154,13.1191417 C4.15948154,13.3886362 4.37464726,13.6071047 4.64006762,13.6071047 C4.90548799,13.6071047 5.12065371,13.3886362 5.12065371,13.1191417 L5.12065371,13.1191417 Z" id="Shape" sketch:type="MSShapeGroup"></path>
                <path d="M2.25594791,3.43596353 L11.7018447,3.41769125 L11.262559,2.97454049 L11.2573683,15.5330076 L11.7379544,15.0661492 L2.27410538,15.0661492 L2.75469146,15.5330076 L2.77971165,3.3046596 L2.25594791,3.43596353 Z M1.90445509,2.62117086 C1.80500372,2.70670414 1.74230905,2.83165935 1.74230905,2.97083942 L1.76791417,9.25192349 L1.7935193,15.5330076 C1.7935193,15.7908463 2.00868502,15.999866 2.27410538,15.999866 L11.7379544,15.999866 C12.0033747,15.999866 12.2185404,15.7908463 12.2185404,15.5330076 C12.2185404,15.5330076 12.2014703,11.3456182 12.1929353,9.25192349 C12.1844003,7.1582288 12.1673302,2.97083942 12.1673302,2.97083942 C12.1673302,2.83165935 12.1046355,2.70670414 12.0051841,2.62117086 C11.96101,2.58317886 11.909584,2.55296457 11.8531792,2.53273611 C11.8013206,2.51413806 11.7452534,2.503981 11.6867441,2.503981 L2.22289513,2.503981 C2.22289513,2.503981 1.9892429,2.548249 1.90445509,2.62117086 Z" id="Shape" sketch:type="MSShapeGroup"></path>
            </g>
        </g>
    </g>
</svg>